<?xml version="1.0" encoding="UTF-8" standalone="no"?>
<!DOCTYPE svg PUBLIC "-//W3C//DTD SVG 1.1//EN"
 "http://www.w3.org/Graphics/SVG/1.1/DTD/svg11.dtd">
<!-- Generated by graphviz version 14.0.2 (20251019.1705)
 -->
<!-- Pages: 1 -->
<svg width="230pt" height="132pt"
 viewBox="0.00 0.00 230.00 132.00" xmlns="http://www.w3.org/2000/svg" xmlns:xlink="http://www.w3.org/1999/xlink">
<g id="graph0" class="graph" transform="scale(1 1) rotate(0) translate(4 128)">
<polygon fill="white" stroke="none" points="-4,4 -4,-128 226.25,-128 226.25,4 -4,4"/>
<g id="clust2" class="cluster">
<title>cluster_associated</title>
</g>
<!-- QuantitativeValueInteger -->
<g id="node1" class="node">
<title>QuantitativeValueInteger</title>
<g id="a_node1"><a xlink:href="../QuantitativeValueInteger" xlink:title="&lt;TABLE&gt;">
<polygon fill="lightgray" stroke="none" points="1,-81.88 1,-98.12 133.5,-98.12 133.5,-81.88 1,-81.88"/>
<text xml:space="preserve" text-anchor="start" x="2" y="-85.72" font-family="Arial" font-size="12.00">QuantitativeValueInteger</text>
<polygon fill="none" stroke="black" points="0,-80.88 0,-99.12 134.5,-99.12 134.5,-80.88 0,-80.88"/>
</a>
</g>
</g>
<!-- QuantitativeValue -->
<g id="node3" class="node">
<title>QuantitativeValue</title>
<g id="a_node3"><a xlink:href="../QuantitativeValue" xlink:title="&lt;TABLE&gt;">
<polygon fill="lightgray" stroke="none" points="19.38,-9.88 19.38,-26.12 115.12,-26.12 115.12,-9.88 19.38,-9.88"/>
<text xml:space="preserve" text-anchor="start" x="20.38" y="-13.72" font-family="Arial" font-size="12.00">QuantitativeValue</text>
<polygon fill="none" stroke="black" points="18.38,-8.88 18.38,-27.12 116.12,-27.12 116.12,-8.88 18.38,-8.88"/>
</a>
</g>
</g>
<!-- QuantitativeValueInteger&#45;&gt;QuantitativeValue -->
<g id="edge1" class="edge">
<title>QuantitativeValueInteger&#45;&gt;QuantitativeValue</title>
<path fill="none" stroke="black" d="M67.25,-72.05C67.25,-64.57 67.25,-55.58 67.25,-47.14"/>
<polygon fill="none" stroke="black" points="70.75,-47.3 67.25,-37.3 63.75,-47.3 70.75,-47.3"/>
</g>
<!-- Invis -->
</g>
</svg>
