<?xml version="1.0" encoding="UTF-8" standalone="no"?>
<!DOCTYPE svg PUBLIC "-//W3C//DTD SVG 1.1//EN"
 "http://www.w3.org/Graphics/SVG/1.1/DTD/svg11.dtd">
<!-- Generated by graphviz version 14.1.3 (20260303.0454)
 -->
<!-- Pages: 1 -->
<svg width="303pt" height="387pt"
 viewBox="0.00 0.00 303.00 387.00" xmlns="http://www.w3.org/2000/svg" xmlns:xlink="http://www.w3.org/1999/xlink">
<g id="graph0" class="graph" transform="scale(1 1) rotate(0) translate(4 383.25)">
<polygon fill="white" stroke="none" points="-4,4 -4,-383.25 298.63,-383.25 298.63,4 -4,4"/>
<g id="clust3" class="cluster">
<title>cluster_associated</title>
</g>
<!-- ProductOrService -->
<g id="node1" class="node">
<title>ProductOrService</title>
<g id="a_node1"><a xlink:href="../ProductOrService" xlink:title="&lt;TABLE&gt;">
<polygon fill="lightgray" stroke="none" points="1,-353.12 1,-369.38 97.5,-369.38 97.5,-353.12 1,-353.12"/>
<text xml:space="preserve" text-anchor="start" x="2" y="-357.12" font-family="Arial" font-size="12.00">ProductOrService</text>
<polygon fill="none" stroke="black" points="0,-352.12 0,-370.38 98.5,-370.38 98.5,-352.12 0,-352.12"/>
</a>
</g>
</g>
<!-- schema1_Product -->
<g id="node2" class="node">
<title>schema1_Product</title>
<g id="a_node2"><a xlink:href="https://w3id.org/citydata/imported/schema1/latest/Product" xlink:title="&lt;TABLE&gt;">
<polygon fill="lightgray" stroke="none" points="117.75,-353.12 117.75,-369.38 212.75,-369.38 212.75,-353.12 117.75,-353.12"/>
<text xml:space="preserve" text-anchor="start" x="118.75" y="-357.12" font-family="Arial" font-size="12.00">schema1:Product</text>
<polygon fill="none" stroke="black" points="116.75,-352.12 116.75,-370.38 213.75,-370.38 213.75,-352.12 116.75,-352.12"/>
</a>
</g>
</g>
<!-- SomeItems -->
<g id="node3" class="node">
<title>SomeItems</title>
<g id="a_node3"><a xlink:href="../SomeItems" xlink:title="&lt;TABLE&gt;">
<polygon fill="lightgray" stroke="none" points="44.75,-289 44.75,-305.25 169.75,-305.25 169.75,-289 44.75,-289"/>
<text xml:space="preserve" text-anchor="start" x="77.25" y="-293" font-family="Arial" font-size="12.00">SomeItems</text>
<text xml:space="preserve" text-anchor="start" x="45.75" y="-276.75" font-family="Arial" font-size="12.00">description : rdfs:Literal</text>
<text xml:space="preserve" text-anchor="start" x="45.75" y="-260.5" font-family="Arial" font-size="12.00">name : rdfs:Literal</text>
<polygon fill="none" stroke="black" points="43.75,-255.5 43.75,-306.25 170.75,-306.25 170.75,-255.5 43.75,-255.5"/>
</a>
</g>
</g>
<!-- SomeItems&#45;&gt;ProductOrService -->
<g id="edge1" class="edge">
<title>SomeItems&#45;&gt;ProductOrService</title>
<path fill="none" stroke="black" d="M89.24,-306.21C82.57,-315.23 74.98,-325.48 68.22,-334.62"/>
<polygon fill="none" stroke="black" points="65.59,-332.29 62.45,-342.41 71.21,-336.46 65.59,-332.29"/>
</g>
<!-- SomeItems&#45;&gt;schema1_Product -->
<g id="edge2" class="edge">
<title>SomeItems&#45;&gt;schema1_Product</title>
<path fill="none" stroke="black" d="M125.26,-306.21C131.93,-315.23 139.52,-325.48 146.28,-334.62"/>
<polygon fill="none" stroke="black" points="143.29,-336.46 152.05,-342.41 148.91,-332.29 143.29,-336.46"/>
</g>
<!-- Invis -->
<!-- SomeItems&#45;&gt;Invis -->
<!-- ProductOrServiceModel -->
<g id="node5" class="node">
<title>ProductOrServiceModel</title>
<g id="a_node5"><a xlink:href="../ProductOrServiceModel" xlink:title="&lt;TABLE&gt;">
<polygon fill="lightgray" stroke="none" points="18.5,-98.88 18.5,-115.12 148,-115.12 148,-98.88 18.5,-98.88"/>
<text xml:space="preserve" text-anchor="start" x="19.5" y="-102.88" font-family="Arial" font-size="12.00">ProductOrServiceModel</text>
<polygon fill="none" stroke="black" points="17.5,-97.88 17.5,-116.12 149,-116.12 149,-97.88 17.5,-97.88"/>
</a>
</g>
</g>
<!-- SomeItems&#45;&gt;ProductOrServiceModel -->
<g id="edge7" class="edge">
<title>SomeItems&#45;&gt;ProductOrServiceModel</title>
<path fill="none" stroke="black" d="M103.86,-255.61C99.47,-224.13 91.81,-169.31 87.17,-136.07"/>
<polygon fill="black" stroke="black" points="90.67,-135.8 85.82,-126.38 83.73,-136.77 90.67,-135.8"/>
<polygon fill="white" stroke="none" points="99.75,-189.75 99.75,-211.25 200,-211.25 200,-189.75 99.75,-189.75"/>
<text xml:space="preserve" text-anchor="start" x="103.75" y="-196.75" font-family="Arial" font-size="11.00">hasMakeAndModel</text>
</g>
<!-- QuantitativeValueFloat -->
<g id="node6" class="node">
<title>QuantitativeValueFloat</title>
<g id="a_node6"><a xlink:href="../QuantitativeValueFloat" xlink:title="&lt;TABLE&gt;">
<polygon fill="lightgray" stroke="none" points="23.88,-25.88 23.88,-42.12 146.62,-42.12 146.62,-25.88 23.88,-25.88"/>
<text xml:space="preserve" text-anchor="start" x="24.88" y="-29.88" font-family="Arial" font-size="12.00">QuantitativeValueFloat</text>
<polygon fill="none" stroke="black" points="22.88,-24.88 22.88,-43.12 147.62,-43.12 147.62,-24.88 22.88,-24.88"/>
</a>
</g>
</g>
<!-- SomeItems&#45;&gt;QuantitativeValueFloat -->
<g id="edge6" class="edge">
<title>SomeItems&#45;&gt;QuantitativeValueFloat</title>
<path fill="none" stroke="black" d="M170.66,-257.65C184.02,-249.91 196.42,-239.74 204.25,-226.5 214.2,-209.67 208.68,-201.55 204.25,-182.5 193.75,-137.39 187.93,-124.55 158.25,-89 148.61,-77.45 136,-67 123.99,-58.44"/>
<polygon fill="black" stroke="black" points="126.03,-55.6 115.79,-52.85 122.08,-61.38 126.03,-55.6"/>
<polygon fill="white" stroke="none" points="199.63,-143 199.63,-164.5 294.63,-164.5 294.63,-143 199.63,-143"/>
<text xml:space="preserve" text-anchor="start" x="203.63" y="-150" font-family="Arial" font-size="11.00">hasInventoryLevel</text>
</g>
<!-- Invis&#45;&gt;ProductOrServiceModel -->
<!-- ProductOrServiceModel&#45;&gt;QuantitativeValueFloat -->
</g>
</svg>
