<?xml version="1.0" encoding="UTF-8" standalone="no"?>
<!DOCTYPE svg PUBLIC "-//W3C//DTD SVG 1.1//EN"
 "http://www.w3.org/Graphics/SVG/1.1/DTD/svg11.dtd">
<!-- Generated by graphviz version 14.0.2 (20251019.1705)
 -->
<!-- Pages: 1 -->
<svg width="235pt" height="132pt"
 viewBox="0.00 0.00 235.00 132.00" xmlns="http://www.w3.org/2000/svg" xmlns:xlink="http://www.w3.org/1999/xlink">
<g id="graph0" class="graph" transform="scale(1 1) rotate(0) translate(4 128)">
<polygon fill="white" stroke="none" points="-4,4 -4,-128 231.25,-128 231.25,4 -4,4"/>
<g id="clust2" class="cluster">
<title>cluster_associated</title>
</g>
<!-- SomeItems -->
<g id="node1" class="node">
<title>SomeItems</title>
<g id="a_node1"><a xlink:href="../SomeItems" xlink:title="&lt;TABLE&gt;">
<polygon fill="lightgray" stroke="none" points="76.25,-81.88 76.25,-98.12 138.25,-98.12 138.25,-81.88 76.25,-81.88"/>
<text xml:space="preserve" text-anchor="start" x="77.25" y="-85.72" font-family="Arial" font-size="12.00">SomeItems</text>
<polygon fill="none" stroke="black" points="75.25,-80.88 75.25,-99.12 139.25,-99.12 139.25,-80.88 75.25,-80.88"/>
</a>
</g>
</g>
<!-- ProductOrService -->
<g id="node3" class="node">
<title>ProductOrService</title>
<g id="a_node3"><a xlink:href="../ProductOrService" xlink:title="&lt;TABLE&gt;">
<polygon fill="lightgray" stroke="none" points="1,-9.88 1,-26.12 97.5,-26.12 97.5,-9.88 1,-9.88"/>
<text xml:space="preserve" text-anchor="start" x="2" y="-13.72" font-family="Arial" font-size="12.00">ProductOrService</text>
<polygon fill="none" stroke="black" points="0,-8.88 0,-27.12 98.5,-27.12 98.5,-8.88 0,-8.88"/>
</a>
</g>
</g>
<!-- SomeItems&#45;&gt;ProductOrService -->
<g id="edge1" class="edge">
<title>SomeItems&#45;&gt;ProductOrService</title>
<path fill="none" stroke="black" d="M93.21,-72.05C86.37,-63.8 78,-53.7 70.41,-44.54"/>
<polygon fill="none" stroke="black" points="73.2,-42.42 64.13,-36.95 67.81,-46.89 73.2,-42.42"/>
</g>
<!-- schema1_Product -->
<g id="node4" class="node">
<title>schema1_Product</title>
<g id="a_node4"><a xlink:href="https://w3id.org/citydata/imported/schema1/latest/Product" xlink:title="&lt;TABLE&gt;">
<polygon fill="lightgray" stroke="none" points="117.75,-9.88 117.75,-26.12 212.75,-26.12 212.75,-9.88 117.75,-9.88"/>
<text xml:space="preserve" text-anchor="start" x="118.75" y="-13.72" font-family="Arial" font-size="12.00">schema1:Product</text>
<polygon fill="none" stroke="black" points="116.75,-8.88 116.75,-27.12 213.75,-27.12 213.75,-8.88 116.75,-8.88"/>
</a>
</g>
</g>
<!-- SomeItems&#45;&gt;schema1_Product -->
<g id="edge2" class="edge">
<title>SomeItems&#45;&gt;schema1_Product</title>
<path fill="none" stroke="black" d="M121.29,-72.05C128.13,-63.8 136.5,-53.7 144.09,-44.54"/>
<polygon fill="none" stroke="black" points="146.69,-46.89 150.37,-36.95 141.3,-42.42 146.69,-46.89"/>
</g>
<!-- Invis -->
</g>
</svg>
